HIERARCHY
ROOT root
{
	OFFSET	0	13.1	24.9
	CHANNELS 6  Xposition Yposition Zposition Xrotation Yrotation Zrotation
	JOINT spine_1
	{
		OFFSET	0	9.99999	0
		CHANNELS 3  Xrotation Yrotation Zrotation
		JOINT spine_2
		{
			OFFSET	0	112	-10
			CHANNELS 3  Xrotation Yrotation Zrotation
			JOINT spine_3
			{
				OFFSET	0	206.5	19.3
				CHANNELS 3  Xrotation Yrotation Zrotation
				JOINT spine_4
				{
					OFFSET	0	110.4	14.6
					CHANNELS 3  Xrotation Yrotation Zrotation
					JOINT neck_1
					{
						OFFSET	0	71.8	-50.3
						CHANNELS 3  Xrotation Yrotation Zrotation
						JOINT neck_2
						{
							OFFSET	0	86.2	-25.8
							CHANNELS 3  Xrotation Yrotation Zrotation
							JOINT head_ee
							{
								OFFSET	0	179.8	-8.7
								CHANNELS 3  Xrotation Yrotation Zrotation
								End Site
								{
									OFFSET	1	0	0
								}
							}
						}
					}
					JOINT left_clavicle
					{
						OFFSET	-43.2	22.4	-70.8
						CHANNELS 3  Xrotation Yrotation Zrotation
						JOINT left_shoulder
						{
							OFFSET	-93.9	-5.79999	48.7
							CHANNELS 3  Xrotation Yrotation Zrotation
							JOINT left_elbow
							{
								OFFSET	-291.4	-30.8	15.2
								CHANNELS 3  Xrotation Yrotation Zrotation
								JOINT left_lowarm_twist
								{
									OFFSET	-110.7	-3.89999	13.6
									CHANNELS 3  Xrotation Yrotation Zrotation
									JOINT left_hand
									{
										OFFSET	-110.7	-3.89999	13.6
										CHANNELS 3  Xrotation Yrotation Zrotation
										JOINT left_ee
										{
											OFFSET	-80.8	-5.10001	12.1
											CHANNELS 3  Xrotation Yrotation Zrotation
											End Site
											{
												OFFSET	1	0	0
											}
										}
									}
								}
							}
						}
					}
					JOINT right_clavicle
					{
						OFFSET	43.2	22.4	-70.8
						CHANNELS 3  Xrotation Yrotation Zrotation
						JOINT right_shoulder
						{
							OFFSET	93.9	-5.79999	48.7
							CHANNELS 3  Xrotation Yrotation Zrotation
							JOINT right_elbow
							{
								OFFSET	291.4	-30.8	15.2
								CHANNELS 3  Xrotation Yrotation Zrotation
								JOINT right_lowarm_twist
								{
									OFFSET	110.7	-3.89999	13.6
									CHANNELS 3  Xrotation Yrotation Zrotation
									JOINT right_hand
									{
										OFFSET	110.7	-3.89999	13.6
										CHANNELS 3  Xrotation Yrotation Zrotation
										JOINT right_ee
										{
											OFFSET	80.8	-5.10001	12.1
											CHANNELS 3  Xrotation Yrotation Zrotation
											End Site
											{
												OFFSET	1	0	0
											}
										}
									}
								}
							}
						}
					}
				}
			}
		}
	}
	JOINT left_hip
	{
		OFFSET	-82.8	-127.5	0.300001
		CHANNELS 3  Xrotation Yrotation Zrotation
		JOINT left_knee
		{
			OFFSET	-28.2	-396.7	2.2
			CHANNELS 3  Xrotation Yrotation Zrotation
			JOINT left_ankle
			{
				OFFSET	-11.7	-411.3	35.4
				CHANNELS 3  Xrotation Yrotation Zrotation
				JOINT left_toes
				{
					OFFSET	0	-60	-88.6
					CHANNELS 3  Xrotation Yrotation Zrotation
					JOINT left_foot_ee
					{
						OFFSET	-22.5	-16.5	-42.2
						CHANNELS 3  Xrotation Yrotation Zrotation
						End Site
						{
							OFFSET	1	0	0
						}
					}
				}
			}
		}
	}
	JOINT right_hip
	{
		OFFSET	82.8	-127.5	0.300001
		CHANNELS 3  Xrotation Yrotation Zrotation
		JOINT right_knee
		{
			OFFSET	28.2	-396.7	2.2
			CHANNELS 3  Xrotation Yrotation Zrotation
			JOINT right_ankle
			{
				OFFSET	11.7	-411.3	35.4
				CHANNELS 3  Xrotation Yrotation Zrotation
				JOINT right_toes
				{
					OFFSET	0	-60	-88.6
					CHANNELS 3  Xrotation Yrotation Zrotation
					JOINT right_foot_ee
					{
						OFFSET	22.5	-16.5	-42.2
						CHANNELS 3  Xrotation Yrotation Zrotation
						End Site
						{
							OFFSET	1	0	0
						}
					}
				}
			}
		}
	}
}
MOTION
Frames: 12
Frame Time: 0.02
2141.45 711.832 -1473.55 -5.16621 62.3544 1.31947 0.919027 0.704729 2.35828 0.921951 0.553282 2.39831 0.946255 0.0777144 2.46004 0.938112 0.465142 2.41694 -9.89131 15.0938 -0.169289 -10.1686 28.5446 3.7066 -0.0 0.0 -0.0 -4.28726 23.4285 -3.18002 -15.0243 -13.5995 66.3232 2.47484 -50.7884 1.17497 -21.5295 -1.2334 2.44485 -1.4081 3.6625 -7.78306 -0.0 0.0 -0.0 14.2001 26.4418 -28.4167 -10.4738 33.2488 -64.3638 0.32129 9.04341 -0.0254086 16.9789 -0.282627 2.14256 0.893233 8.54044 -2.40544 0.0 0.0 0.0 12.5864 27.2865 -9.50566 -32.4676 -0.0583319 4.91624 38.7905 6.48522 -4.75291 -35.9482 0.0 0.0 -0.0 0.0 -0.0 -3.37209 20.7539 0.176604 -7.44913 -0.234265 -1.11841 40.6951 -7.26027 4.92165 -8.06787 0.0 0.0 0.0 0.0 0.0 
2132.04 711.227 -1475.88 -4.96529 63.0494 1.64372 1.01393 0.784515 2.0831 1.01611 0.650403 2.12877 1.04121 0.229009 2.21406 1.03483 0.575724 2.15016 -11.114 15.0382 0.405022 -11.5001 28.1898 4.57299 -0.0 0.0 -0.0 -4.30739 23.8183 -3.11502 -16.9367 -14.778 67.137 2.21064 -47.5923 0.974929 -22.1295 -1.28054 2.50556 -1.32197 2.87336 -7.56682 -0.0 0.0 -0.0 14.0945 26.4659 -28.1659 -8.2765 34.588 -65.0118 0.369078 10.3612 -0.0334628 17.2771 -0.281879 2.18065 0.543604 6.89612 -0.74336 0.0 0.0 0.0 17.6019 31.2709 -12.4351 -33.1944 -0.0914826 5.02283 39.7538 8.34006 -4.84462 -35.9059 0.0 0.0 -0.0 0.0 -0.0 -3.59653 19.8933 -0.413734 -8.59016 -0.257224 -1.292 40.8461 -8.84513 4.9421 -6.77534 0.0 0.0 0.0 0.0 0.0 
2118.39 712.702 -1476.75 -5.36266 62.9196 2.35212 1.32314 0.892967 1.89206 1.3248 0.770784 1.94502 1.35166 0.393688 2.05477 1.34648 0.713197 1.96686 -11.4518 15.1339 0.964532 -11.8635 28.0463 5.2256 -0.0 0.0 -0.0 -4.04736 24.1062 -2.69151 -19.7497 -14.1234 67.5194 1.83698 -42.2976 0.71068 -22.3579 -1.29865 2.52855 -1.23461 2.2584 -7.26026 -0.0 0.0 -0.0 14.032 26.4618 -28.0201 -5.52948 36.0248 -65.3086 0.414241 11.5965 -0.0420644 17.7962 -0.280106 2.24693 0.279779 6.43045 0.839456 0.0 0.0 0.0 19.8837 26.9009 -12.4341 -37.0949 -0.292367 5.58728 39.7242 11.4872 -4.86476 -36.1547 0.0 0.0 -0.0 0.0 -0.0 -4.84321 19.5486 -0.312912 -7.67132 -0.239007 -1.15218 41.1361 -8.87912 4.96704 -4.7987 0.0 0.0 0.0 0.0 0.0 
2104.93 711.822 -1477.23 -6.39001 63.1849 3.28503 1.5261 0.891237 1.74919 1.52746 0.778143 1.80234 1.55246 0.434291 1.91447 1.54809 0.731146 1.82191 -11.7583 14.912 0.517148 -12.1968 27.9438 4.8144 -0.0 0.0 -0.0 -3.48552 23.2624 -2.10662 -21.7365 -12.8458 68.5393 1.37939 -34.3433 0.426262 -22.5128 -1.31098 2.54409 -1.10569 2.07525 -6.48043 -0.0 0.0 -0.0 14.0943 26.5044 -28.1605 -2.62303 37.1595 -65.9427 0.448176 12.5176 -0.0491531 18.2915 -0.277853 2.31015 -0.226602 5.18155 3.72564 0.0 0.0 0.0 22.7162 21.6359 -12.9469 -39.5077 -0.435742 5.92925 38.5455 11.918 -4.76262 -37.3919 0.0 0.0 -0.0 0.0 -0.0 -5.63155 19.2015 0.851496 -5.74082 -0.193436 -0.859445 41.0433 -9.84687 4.96574 -3.43362 0.0 0.0 0.0 0.0 0.0 
2101.54 711.202 -1469.96 -7.99357 64.0438 4.90049 1.68662 0.628533 1.6383 1.68796 0.523025 1.67496 1.70353 0.211331 1.74193 1.69962 0.483745 1.68672 -13.1274 14.5799 0.674841 -13.6669 27.342 5.21972 -0.0 0.0 -0.0 -2.96705 22.9167 -1.45772 -23.0057 -11.8671 70.6152 1.09292 -28.4303 0.276866 -22.5197 -1.31154 2.54478 -0.999983 2.24295 -5.70045 -0.0 0.0 -0.0 13.8419 26.6626 -27.5504 0.849263 38.496 -66.429 0.494725 13.7704 -0.0597391 18.6286 -0.276007 2.35316 -0.526106 5.10177 5.71707 0.0 0.0 0.0 25.0773 17.943 -12.1349 -39.6074 -0.441982 5.94326 37.0782 11.5609 -4.62292 -38.567 0.0 0.0 -0.0 0.0 -0.0 -6.08036 19.3575 1.10168 -3.98725 -0.143509 -0.59497 39.8831 -10.4815 4.86993 -3.02661 0.0 0.0 0.0 0.0 0.0 
2090.49 707.728 -1469.7 -8.85219 65.085 5.63233 1.77116 0.429049 1.66094 1.77263 0.322506 1.68486 1.78227 0.0145954 1.71538 1.77827 0.285285 1.69156 -13.5378 14.4865 0.354863 -14.118 27.3947 4.99718 -0.0 0.0 -0.0 -2.96392 23.3774 -1.36256 -25.0963 -10.7852 71.2611 0.896027 -23.9345 0.189925 -22.707 -1.32651 2.56354 -0.879583 2.39744 -4.83035 -0.0 0.0 -0.0 13.9489 26.6593 -27.8005 3.84549 39.4156 -66.4322 0.631674 17.3757 -0.0965235 18.6541 -0.275857 2.35641 -0.73562 5.09135 7.13363 0.0 0.0 0.0 26.9789 15.2723 -12.3523 -39.4328 -0.431078 5.91873 36.6786 10.4111 -4.57607 -38.8909 0.0 0.0 -0.0 0.0 -0.0 -6.67504 19.2926 1.08111 -3.17581 -0.117669 -0.47312 40.4609 -10.7149 4.92252 -2.14265 0.0 0.0 0.0 0.0 0.0 
2081.35 703.524 -1465.72 -10.4114 66.4526 7.66211 1.95119 0.464897 1.5085 1.95238 0.367977 1.53501 1.96233 0.0912198 1.57586 1.95902 0.338922 1.54169 -13.536 14.3243 0.95205 -14.082 26.7206 5.49712 -0.0 0.0 -0.0 -2.99937 23.2653 -1.43363 -26.7425 -10.1078 71.9242 0.738917 -20.1045 0.130988 -22.6716 -1.32368 2.55999 -0.771684 2.46999 -4.08106 -0.0 0.0 -0.0 13.717 26.4455 -27.2866 6.52171 39.2678 -66.1733 0.701877 19.172 -0.118539 18.8832 -0.274445 2.38565 -0.79405 4.92459 7.4582 0.0 0.0 0.0 28.826 13.2582 -11.868 -37.5567 -0.318687 5.65318 35.8227 10.4086 -4.49414 -39.6501 0.0 0.0 -0.0 0.0 -0.0 -7.0071 18.9426 0.555232 -2.66471 -0.100508 -0.396559 41.0497 -10.8781 4.97487 -1.31279 0.0 0.0 0.0 0.0 0.0 
2067.75 705.694 -1464.18 -11.9686 68.2719 9.18173 2.10983 0.34147 1.46553 2.11099 0.247533 1.48429 2.11739 -0.0143469 1.50471 2.1143 0.223448 1.4881 -14.1207 14.2665 1.54689 -14.6913 26.3035 6.18168 -0.0 0.0 -0.0 -2.82303 23.0628 -1.22917 -27.3942 -9.66075 72.4241 0.590896 -16.3156 0.0847059 -22.4709 -1.30764 2.53989 -0.622836 4.06442 -2.40263 -0.0 0.0 -0.0 13.3428 26.3772 -26.4253 7.31488 38.7808 -65.8975 0.890739 23.809 -0.187785 18.7188 -0.27547 2.36468 -0.540925 8.47538 7.27005 0.0 0.0 0.0 30.2145 11.6474 -11.4941 -34.2428 -0.141684 5.17584 35.3745 10.0215 -4.44822 -40.1637 0.0 0.0 -0.0 0.0 -0.0 -7.98675 19.1364 0.896062 -3.59098 -0.131106 -0.53542 41.071 -10.9798 4.97764 -1.03771 0.0 0.0 0.0 0.0 0.0 
2061.66 702.268 -1466.05 -12.0843 69.7085 9.27422 2.13484 0.306217 1.68721 2.1364 0.198251 1.70327 2.14222 -0.100246 1.71184 2.13818 0.171324 1.70619 -15.1375 13.8892 1.99517 -15.7387 25.4096 6.71327 -0.0 0.0 -0.0 -2.74531 23.0338 -1.12695 -27.8312 -9.28517 72.0842 0.494169 -13.7555 0.0596069 -22.3806 -1.30046 2.53083 -0.513377 5.37187 -1.1202 -0.0 0.0 -0.0 13.0564 26.3622 -25.7643 9.06378 38.6166 -65.4541 1.08672 28.2941 -0.273922 18.5937 -0.27621 2.34872 -0.275748 10.9776 6.53858 0.0 0.0 0.0 31.6143 10.535 -11.6068 -28.7228 0.0908634 4.36102 34.5813 9.87628 -4.36955 -40.2365 0.0 0.0 -0.0 0.0 -0.0 -8.87628 18.4303 0.646879 -4.34802 -0.154442 -0.649257 41.1085 -11.3727 4.98462 -0.95747 0.0 0.0 0.0 0.0 0.0 
2047.54 700.168 -1469.41 -12.8292 71.507 10.1899 2.1513 0.26604 1.90046 2.1533 0.144592 1.91353 2.15799 -0.189086 1.90965 2.15292 0.114824 1.91555 -16.0119 13.4931 1.82772 -16.6492 24.822 6.62015 -0.0 0.0 -0.0 -2.66968 22.5596 -1.11131 -28.6104 -9.25255 71.4921 0.404845 -11.3404 0.0401963 -22.4665 -1.3073 2.53945 -0.395436 6.48463 0.125063 -0.0 0.0 -0.0 12.9455 26.5792 -25.4821 10.6643 38.5149 -65.541 1.25936 31.9566 -0.360613 18.6603 -0.27582 2.35721 -0.0820705 12.5711 5.90547 0.0 0.0 0.0 31.6461 9.82118 -11.2737 -24.3016 0.219828 3.69494 33.9678 9.52757 -4.30669 -40.2015 0.0 0.0 -0.0 0.0 -0.0 -9.39675 17.5166 -0.264908 -4.82489 -0.168368 -0.721116 41.3012 -11.51 5.00252 -1.12166 0.0 0.0 0.0 0.0 0.0 
2038.23 697.684 -1467.51 -13.8937 71.7482 11.8691 2.22371 0.333947 1.72463 2.22534 0.223544 1.74238 2.23203 -0.0793599 1.75487 2.22779 0.198741 1.74538 -18.4031 12.6908 2.68495 -19.0797 22.9934 7.63505 -0.0 0.0 -0.0 -2.8395 23.2628 -1.21333 -29.1238 -8.75279 71.0684 0.400403 -11.2191 0.0393274 -22.1912 -1.28542 2.51178 -0.20791 7.27157 1.67682 -0.0 0.0 -0.0 12.9425 26.2703 -25.5123 10.8388 38.6785 -64.164 1.52322 37.0343 -0.510197 17.7981 -0.280098 2.24717 0.107604 14.3808 5.39588 0.0 0.0 0.0 32.3552 9.42937 -11.55 -19.6765 0.299348 2.98986 31.0641 9.39354 -4.00765 -40.1286 0.0 0.0 -0.0 0.0 -0.0 -10.9163 16.9019 -0.573469 -1.91166 -0.0739776 -0.284033 41.0813 -11.6073 4.98465 -2.41056 0.0 0.0 0.0 0.0 0.0 
2025.49 695.119 -1468.14 -15.3454 72.6037 13.772 2.25778 0.486677 1.6913 2.2593 0.378085 1.71883 2.27059 0.0781869 1.75817 2.26645 0.354834 1.72378 -17.6578 12.3434 1.63077 -18.2935 22.8396 6.35136 -0.0 0.0 -0.0 -2.93203 23.4732 -1.29982 -29.6276 -8.67077 70.815 0.39039 -10.9454 0.0374026 -22.0927 -1.27764 2.50186 -0.042402 7.64445 2.90665 -0.0 0.0 -0.0 13.1965 25.7862 -26.157 11.0215 38.6287 -62.9891 1.71148 40.2884 -0.627852 17.4544 -0.281341 2.20329 0.130758 14.6432 5.3518 0.0 0.0 0.0 32.9642 8.76628 -12.085 -11.1791 0.296469 1.68729 24.8887 9.29537 -3.32129 -40.3388 0.0 0.0 -0.0 0.0 -0.0 -11.9321 16.5471 -0.804715 -1.04431 -0.0415892 -0.154864 41.2651 -11.6765 5.00114 -3.62777 0.0 0.0 0.0 0.0 0.0 
